<svg width="56" height="39" viewBox="0 0 56 39" fill="none" xmlns="http://www.w3.org/2000/svg">
<mask id="mask0_245_5" style="mask-type:luminance" maskUnits="userSpaceOnUse" x="0" y="0" width="56" height="39">
<path d="M56 0H0V38.5773H56V0Z" fill="white"/>
</mask>
<g mask="url(#mask0_245_5)">
<path d="M25.7388 22.8378V12.8448C25.7388 12.4659 25.5794 12.1025 25.2955 11.8345C25.0117 11.5666 24.6267 11.416 24.2253 11.416C23.8239 11.416 23.4389 11.5666 23.1551 11.8345C22.8713 12.1025 22.7118 12.4659 22.7118 12.8448V22.7864C22.7118 25.9854 19.9875 28.5872 16.6577 28.5872C13.328 28.5872 10.6037 25.9854 10.6037 22.7864V8.55846C10.6037 8.17952 10.4442 7.8161 10.1604 7.54815C9.87655 7.2802 9.49158 7.12967 9.09017 7.12967C8.68877 7.12967 8.3038 7.2802 8.01996 7.54815C7.73612 7.8161 7.57666 8.17952 7.57666 8.55846V22.8378C7.57666 25.1114 8.53341 27.2919 10.2364 28.8996C11.9395 30.5073 14.2493 31.4105 16.6577 31.4105C19.0662 31.4105 21.376 30.5073 23.079 28.8996C24.7821 27.2919 25.7388 25.1114 25.7388 22.8378Z" fill="#F7156B"/>
<path d="M24.8776 7.12977C25.1756 7.12781 25.4666 7.04429 25.7154 6.88934C25.9641 6.73439 26.16 6.51466 26.2791 6.25678C26.7511 5.24644 27.5229 4.38681 28.5014 3.78181C29.4799 3.17681 30.6231 2.85236 31.7928 2.84769C35.1316 2.84769 37.8469 5.45094 37.8469 8.64858V22.8465C37.8469 23.2254 38.0063 23.5888 38.2902 23.8568C38.574 24.1247 38.959 24.2753 39.3604 24.2753C39.7618 24.2753 40.1468 24.1247 40.4306 23.8568C40.7145 23.5888 40.8739 23.2254 40.8739 22.8465V8.57285C40.8764 6.6022 40.1596 4.69091 38.8442 3.16073C37.5287 1.63054 35.6951 0.574902 33.6517 0.171505C31.6084 -0.231892 29.4803 0.0415893 27.6256 0.945911C25.7708 1.85023 24.3028 3.33018 23.4685 5.13661C23.3697 5.35568 23.3301 5.59448 23.3533 5.83156C23.3765 6.06864 23.4616 6.29658 23.6012 6.4949C23.7407 6.69322 23.9303 6.8557 24.1528 6.96777C24.3753 7.07983 24.6239 7.13795 24.8761 7.13692" fill="#F7156B"/>
<path d="M31.7929 7.12967C31.3915 7.12967 31.0065 7.2802 30.7227 7.54815C30.4388 7.8161 30.2794 8.17952 30.2794 8.55846V22.8378C30.2794 25.1114 31.2361 27.2919 32.9391 28.8996C34.6422 30.5073 36.952 31.4105 39.3604 31.4105C41.7689 31.4105 44.0787 30.5073 45.7817 28.8996C47.4848 27.2919 48.4415 25.1114 48.4415 22.8378V21.4176C48.4415 21.0386 48.2821 20.6752 47.9982 20.4073C47.7144 20.1393 47.3294 19.9888 46.928 19.9888C46.5266 19.9888 46.1416 20.1393 45.8578 20.4073C45.574 20.6752 45.4145 21.0386 45.4145 21.4176V22.7864C45.4145 25.9854 42.6977 28.5872 39.3604 28.5872C36.0231 28.5872 33.3064 25.9854 33.3064 22.7864V8.55846C33.3064 8.17952 33.1469 7.8161 32.8631 7.54815C32.5792 7.2802 32.1943 7.12967 31.7929 7.12967Z" fill="#F7156B"/>
<path d="M1.51351 12.8463C1.91492 12.8463 2.29989 12.6957 2.58373 12.4278C2.86757 12.1598 3.02703 11.7964 3.02703 11.4175V8.65133C3.02703 5.45226 5.75135 2.84901 9.08108 2.84901C12.4108 2.84901 15.1351 5.45226 15.1351 8.65133V22.8464C15.1351 23.2253 15.2946 23.5887 15.5784 23.8567C15.8623 24.1246 16.2472 24.2752 16.6486 24.2752C17.0501 24.2752 17.435 24.1246 17.7189 23.8567C18.0027 23.5887 18.1622 23.2253 18.1622 22.8464V8.57274C18.1622 6.29911 17.2054 4.1186 15.5024 2.5109C13.7993 0.903197 11.4895 0 9.08108 0C6.67263 0 4.36282 0.903197 2.65979 2.5109C0.956754 4.1186 0 6.29911 0 8.57274L0 11.4175C0 11.7964 0.159459 12.1598 0.443298 12.4278C0.727137 12.6957 1.1121 12.8463 1.51351 12.8463Z" fill="#F7156B"/>
<path d="M3.02701 23.6022V18.56C3.02748 18.364 2.98524 18.17 2.90291 17.9901C2.82059 17.8102 2.69995 17.6483 2.54848 17.5142C2.39702 17.3802 2.21797 17.2771 2.02248 17.2112C1.82698 17.1453 1.61921 17.118 1.41209 17.1312C1.02248 17.1639 0.660403 17.3346 0.398499 17.6089C0.136596 17.8831 -0.00576146 18.2407 -1.57147e-05 18.61V23.4107C0.00836439 27.2817 1.57775 31.0044 4.38917 33.8223C4.65776 34.0855 5.02521 34.2383 5.41217 34.2479C5.79913 34.2574 6.17455 34.1229 6.45736 33.8734C6.74016 33.6239 6.90765 33.2794 6.92365 32.9143C6.93966 32.5491 6.8029 32.1927 6.5429 31.922C4.28459 29.6767 3.02598 26.6984 3.02701 23.6022Z" fill="#F7156B"/>
<path d="M54.5258 1.52595C53.641 0.649144 52.4482 0.106668 51.1704 5.68054e-06H51.1129C51.0493 5.68054e-06 50.9842 -0.00856706 50.9191 -0.00999585H50.7996L50.7027 -0.0142822H50.6633C50.6422 -0.0142822 50.621 -0.0142822 50.5998 -0.0142822C50.3927 -0.0106946 50.1859 0.00457303 49.9808 0.0314391H49.955C48.6916 0.20148 47.5357 0.796377 46.6998 1.70674C45.8639 2.61711 45.4043 3.78174 45.4054 4.98649V14.2736C45.4049 14.4696 45.4472 14.6636 45.5295 14.8435C45.6118 15.0233 45.7325 15.1853 45.8839 15.3193C46.0354 15.4534 46.2144 15.5565 46.4099 15.6224C46.6054 15.6883 46.8132 15.7155 47.0203 15.7024C47.4101 15.67 47.7723 15.4994 48.0343 15.2251C48.2963 14.9507 48.4385 14.5929 48.4324 14.2236V5.04792C48.4264 4.49042 48.6464 3.95185 49.0474 3.54252C49.4484 3.13318 50 2.88405 50.5892 2.84616C51.1088 2.82151 51.6214 2.96685 52.0406 3.25765C52.083 3.28765 52.1239 3.31766 52.1632 3.35052L52.2313 3.40481C52.2571 3.42625 52.2813 3.44911 52.304 3.47197C52.3267 3.49483 52.36 3.52483 52.3857 3.55198L52.4599 3.63342L52.5295 3.71772C52.5462 3.73915 52.5628 3.75915 52.5779 3.78059C52.5931 3.80202 52.6355 3.86488 52.6627 3.90918L52.696 3.96347C52.7248 4.01348 52.752 4.06349 52.7762 4.11492C52.7762 4.12921 52.7883 4.1435 52.7959 4.15779C52.8186 4.20922 52.8398 4.26066 52.8579 4.31495L52.867 4.33639C52.8867 4.39639 52.9033 4.45783 52.9185 4.51927L52.9276 4.55928C52.9397 4.62071 52.9503 4.68358 52.9578 4.74788V4.7836C52.9578 4.85075 52.9684 4.9179 52.9684 4.98649V23.5751C52.9704 24.2089 52.9198 24.8418 52.8171 25.4682C52.7806 25.6729 52.7918 25.8826 52.8498 26.0828C52.9079 26.283 53.0115 26.4689 53.1534 26.6274C53.2953 26.786 53.4721 26.9135 53.6715 27.001C53.8708 27.0885 54.088 27.1339 54.3079 27.1342C54.6687 27.1342 55.0176 27.0126 55.2918 26.7912C55.5659 26.5698 55.7473 26.2633 55.8032 25.9268C55.9333 25.1537 55.9991 24.3722 56 23.5893V4.98649C56.0017 3.69604 55.4726 2.45537 54.5243 1.52595" fill="#F7156B"/>
<path d="M51.4005 30.5619H51.3566C51.1304 30.5631 50.9075 30.6127 50.7046 30.707C50.5017 30.8013 50.324 30.9378 50.1851 31.1062C50.1094 31.1948 50.0338 31.282 49.9566 31.3691C49.8022 31.5415 49.6428 31.7106 49.4783 31.8764C49.1169 32.2378 48.7327 32.5785 48.328 32.8965L48.3038 32.9165C48.2342 32.9708 48.1631 33.0237 48.0919 33.0765L48.045 33.1123L47.8437 33.2551L47.7816 33.2994L47.5864 33.4337L47.5122 33.4837L47.32 33.6095L47.2398 33.6609L47.0476 33.7795L46.9598 33.8309L46.7691 33.9438L46.6783 33.9952L46.4846 34.1024L46.3907 34.1524L46.1955 34.2539L46.1016 34.301L45.9003 34.3996L45.8095 34.441C45.7399 34.4739 45.6718 34.5068 45.6022 34.5368L45.5265 34.5696C45.2753 34.6801 45.023 34.783 44.7698 34.8782L44.7001 34.904L44.5125 34.9697L44.3808 35.014C44.3233 35.034 44.2642 35.0511 44.2067 35.0697L44.0554 35.1169L43.8859 35.1669L43.7345 35.2112L43.568 35.2554L43.403 35.2983L43.2381 35.3383L43.0701 35.3769L42.9051 35.4126L42.731 35.4469L42.5691 35.4783L42.3905 35.5098L42.2286 35.5355L42.0454 35.5626L41.885 35.5841L41.6943 35.6069L41.5429 35.6255L41.3447 35.6441L41.1933 35.6569L40.9845 35.6712L40.8422 35.6798L40.6076 35.6898H40.4865C40.3685 35.6898 40.2489 35.6898 40.1293 35.6898C38.1312 35.6886 36.1609 35.2481 34.3744 34.4032C32.588 33.5582 31.0346 32.3321 29.8374 30.8219L29.8299 30.8348L29.8208 30.8219C29.6125 30.5588 29.3421 30.3451 29.031 30.1979C28.7199 30.0508 28.3767 29.9742 28.0288 29.9742C27.6808 29.9742 27.3377 30.0508 27.0266 30.1979C26.7155 30.3451 26.4451 30.5588 26.2368 30.8219V30.8305C24.6612 32.8347 22.4698 34.332 19.9607 35.1187C17.4516 35.9053 14.7467 35.9431 12.2141 35.2269C11.8317 35.1189 11.4196 35.1587 11.0684 35.3375C10.7171 35.5164 10.4555 35.8196 10.3411 36.1806C10.2267 36.5415 10.2689 36.9306 10.4583 37.2622C10.6478 37.5938 10.969 37.8407 11.3514 37.9487C12.8332 38.3783 14.3751 38.595 15.9252 38.5917C18.258 38.5915 20.5617 38.1036 22.6709 37.1629C24.7166 36.2483 26.5326 34.9333 27.9985 33.3051C30.5989 36.1922 34.2603 38.0434 38.2472 38.4865C42.234 38.9297 46.2508 37.932 49.4904 35.6941C49.5715 35.6379 49.6466 35.5742 49.7144 35.5041C49.8809 35.384 50.0443 35.2626 50.2048 35.1369L50.2335 35.114C50.3849 35.0011 50.5211 34.884 50.6619 34.7654L50.7406 34.6996C50.8586 34.5977 50.9752 34.4949 51.0902 34.391C51.1356 34.3482 51.1825 34.3082 51.2294 34.2653C51.3263 34.1753 51.4201 34.0824 51.5155 33.9895C51.5669 33.9395 51.6199 33.8909 51.6668 33.8395L51.6789 33.8252C51.9816 33.5195 52.2753 33.2008 52.5507 32.8708C52.7279 32.6625 52.839 32.4112 52.8714 32.1458C52.9038 31.8805 52.8561 31.6119 52.7339 31.371C52.6116 31.1301 52.4197 30.9267 52.1803 30.7843C51.9409 30.6419 51.6637 30.5663 51.3808 30.5662" fill="#F7156B"/>
</g>
</svg>
