<svg width="22" height="20" viewBox="0 0 22 20" fill="none" xmlns="http://www.w3.org/2000/svg">
<path d="M10.9845 1.00031C10.8971 1.00314 10.8128 1.03178 10.7436 1.08215L1.16055 8.11119C1.07336 8.17509 1.01674 8.26894 1.00316 8.37208C0.989577 8.47523 1.02014 8.57922 1.08813 8.66118C1.15611 8.74314 1.25595 8.79636 1.36568 8.80913C1.47541 8.82189 1.58604 8.79317 1.67323 8.72926L2.25021 8.30625V18.6031C2.25022 18.707 2.29412 18.8066 2.37225 18.88C2.45039 18.9535 2.55636 18.9947 2.66686 18.9948H8.43007C8.47506 19.0017 8.52097 19.0017 8.56597 18.9948H13.4299C13.4749 19.0017 13.5208 19.0017 13.5658 18.9948H19.3331C19.4436 18.9947 19.5496 18.9535 19.6277 18.88C19.7059 18.8066 19.7498 18.707 19.7498 18.6031V8.30625L20.3267 8.72926C20.3699 8.76091 20.4193 8.78425 20.4721 8.79796C20.5248 8.81166 20.58 8.81547 20.6343 8.80915C20.6886 8.80283 20.7411 8.78651 20.7887 8.76112C20.8364 8.73574 20.8782 8.70178 20.9119 8.6612C20.9455 8.62061 20.9704 8.57419 20.9849 8.52459C20.9995 8.47498 21.0036 8.42316 20.9968 8.37209C20.9901 8.32102 20.9727 8.27169 20.9457 8.22692C20.9187 8.18216 20.8826 8.14283 20.8394 8.11119L17.6665 5.78424V2.93713H15.1666V3.94991L11.2563 1.08215C11.1788 1.02565 11.0826 0.996663 10.9845 1.00031ZM11 1.8884L18.9165 7.69506V18.2115H13.9166V10.7701H8.08339V18.2115H3.08352V7.69506L11 1.8884ZM15.9999 3.72043H16.8332V5.17305L15.9999 4.5611V3.72043ZM8.91671 11.5534H13.0833V18.2115H8.91671V11.5534Z" stroke="white"/>
</svg>
