<svg width="43" height="40" viewBox="0 0 43 40" fill="none" xmlns="http://www.w3.org/2000/svg">
<mask id="mask0_342_13" style="mask-type:luminance" maskUnits="userSpaceOnUse" x="0" y="0" width="43" height="40">
<path d="M43 0H0V39.2396H43V0Z" fill="white"/>
</mask>
<g mask="url(#mask0_342_13)">
<path d="M19.7636 23.23V13.0655C19.7636 12.6801 19.6411 12.3104 19.4232 12.0379C19.2052 11.7653 18.9096 11.6122 18.6014 11.6122C18.2932 11.6122 17.9976 11.7653 17.7796 12.0379C17.5617 12.3104 17.4392 12.6801 17.4392 13.0655V23.1777C17.4392 26.4317 15.3474 29.0782 12.7906 29.0782C10.2338 29.0782 8.14195 26.4317 8.14195 23.1777V8.70555C8.14195 8.3201 8.01951 7.95045 7.80156 7.6779C7.58361 7.40534 7.28801 7.25223 6.97979 7.25223C6.67156 7.25223 6.37596 7.40534 6.15802 7.6779C5.94007 7.95045 5.81763 8.3201 5.81763 8.70555V23.23C5.81763 25.5427 6.55228 27.7606 7.85996 29.3959C9.16765 31.0312 10.9413 31.9499 12.7906 31.9499C14.6399 31.9499 16.4136 31.0312 17.7212 29.3959C19.0289 27.7606 19.7636 25.5427 19.7636 23.23Z" fill="#F7146B"/>
<path d="M19.1024 7.2521C19.3312 7.2501 19.5547 7.16515 19.7457 7.00754C19.9367 6.84993 20.0871 6.62643 20.1785 6.36412C20.5409 5.33644 21.1336 4.46204 21.885 3.84666C22.6363 3.23128 23.5141 2.90126 24.4123 2.8965C26.976 2.8965 29.0609 5.54445 29.0609 8.79697V23.2386C29.0609 23.624 29.1834 23.9937 29.4013 24.2663C29.6193 24.5388 29.9149 24.6919 30.2231 24.6919C30.5313 24.6919 30.8269 24.5388 31.0449 24.2663C31.2628 23.9937 31.3853 23.624 31.3853 23.2386V8.71995C31.3872 6.71547 30.8368 4.77137 29.8267 3.21492C28.8167 1.65846 27.4086 0.584699 25.8397 0.174377C24.2707 -0.235944 22.6366 0.0422315 21.2124 0.962078C19.7883 1.88192 18.661 3.38727 18.0204 5.22472C17.9446 5.44755 17.9142 5.69045 17.9319 5.9316C17.9497 6.17275 18.0151 6.4046 18.1223 6.60632C18.2294 6.80805 18.375 6.97332 18.5459 7.08731C18.7167 7.20129 18.9076 7.26042 19.1012 7.25936" fill="#F7146B"/>
<path d="M24.4122 7.25223C24.1039 7.25223 23.8083 7.40534 23.5904 7.6779C23.3724 7.95045 23.25 8.3201 23.25 8.70555V23.23C23.25 25.5427 23.9847 27.7606 25.2923 29.3959C26.6 31.0312 28.3736 31.9499 30.223 31.9499C32.0723 31.9499 33.8459 31.0312 35.1536 29.3959C36.4613 27.7606 37.1959 25.5427 37.1959 23.23V21.7854C37.1959 21.4 37.0735 21.0303 36.8556 20.7578C36.6376 20.4852 36.342 20.3321 36.0338 20.3321C35.7256 20.3321 35.43 20.4852 35.212 20.7578C34.9941 21.0303 34.8716 21.4 34.8716 21.7854V23.1777C34.8716 26.4317 32.7855 29.0782 30.223 29.0782C27.6604 29.0782 25.5743 26.4317 25.5743 23.1777V8.70555C25.5743 8.3201 25.4519 7.95045 25.2339 7.6779C25.016 7.40534 24.7204 7.25223 24.4122 7.25223Z" fill="#F7146B"/>
<path d="M1.16216 13.0668C1.47039 13.0668 1.76599 12.9137 1.98393 12.6412C2.20188 12.3686 2.32432 11.999 2.32432 11.6135V8.7999C2.32432 5.54592 4.41622 2.89798 6.97297 2.89798C9.52973 2.89798 11.6216 5.54592 11.6216 8.7999V23.2386C11.6216 23.6241 11.7441 23.9937 11.962 24.2663C12.18 24.5388 12.4756 24.6919 12.7838 24.6919C13.092 24.6919 13.3876 24.5388 13.6056 24.2663C13.8235 23.9937 13.9459 23.6241 13.9459 23.2386V8.71997C13.9459 6.40731 13.2113 4.18936 11.9036 2.55406C10.5959 0.918763 8.82232 6.10352e-05 6.97297 6.10352e-05C5.12363 6.10352e-05 3.35002 0.918763 2.04234 2.55406C0.73465 4.18936 0 6.40731 0 8.71997L0 11.6135C0 11.999 0.122442 12.3686 0.340389 12.6412C0.558337 12.9137 0.853938 13.0668 1.16216 13.0668Z" fill="#F7146B"/>
<path d="M2.32421 24.0074V18.8786C2.32457 18.6793 2.29213 18.482 2.22892 18.299C2.16571 18.116 2.07307 17.9512 1.95677 17.8149C1.84046 17.6786 1.70298 17.5737 1.55287 17.5067C1.40276 17.4396 1.24322 17.4119 1.08418 17.4253C0.785014 17.4586 0.506991 17.6322 0.305887 17.9112C0.104783 18.1902 -0.00452752 18.5539 -0.000115608 18.9295V23.8126C0.00631911 27.7501 1.21138 31.5367 3.37015 34.403C3.57639 34.6706 3.85854 34.8261 4.15567 34.8358C4.4528 34.8456 4.74107 34.7088 4.95822 34.455C5.17537 34.2011 5.30398 33.8507 5.31627 33.4793C5.32856 33.1079 5.22355 32.7454 5.02391 32.47C3.28985 30.1862 2.32342 27.1567 2.32421 24.0074Z" fill="#F7146B"/>
<path d="M41.868 1.55233C41.1886 0.660472 40.2726 0.108684 39.2914 0.000189926H39.2473C39.1985 0.000189926 39.1485 -0.00852999 39.0985 -0.00998331H39.0067L38.9323 -0.0143433H38.9021C38.8858 -0.0143433 38.8696 -0.0143433 38.8533 -0.0143433C38.6943 -0.0106941 38.5355 0.00483569 38.378 0.0321629H38.3582C37.3881 0.205123 36.5005 0.810232 35.8587 1.73622C35.2169 2.66222 34.8639 3.84684 34.8648 5.07227V14.5188C34.8644 14.7182 34.8968 14.9155 34.9601 15.0985C35.0233 15.2814 35.1159 15.4462 35.2322 15.5825C35.3485 15.7188 35.486 15.8238 35.6361 15.8908C35.7862 15.9578 35.9458 15.9855 36.1048 15.9722C36.4041 15.9392 36.6822 15.7657 36.8834 15.4866C37.0846 15.2076 37.1938 14.8436 37.1891 14.468V5.13477C37.1845 4.56769 37.3534 4.01988 37.6613 3.60351C37.9692 3.18715 38.3927 2.93374 38.8452 2.8952C39.2441 2.87013 39.6378 3.01796 39.9597 3.31376C39.9922 3.34428 40.0236 3.3748 40.0538 3.40822L40.1061 3.46345C40.1259 3.48525 40.1445 3.5085 40.1619 3.53175C40.1793 3.55501 40.2049 3.58553 40.2247 3.61314L40.2816 3.69598L40.3351 3.78173C40.3478 3.80353 40.3606 3.82387 40.3723 3.84567C40.3839 3.86747 40.4164 3.93142 40.4373 3.97647L40.4629 4.0317C40.485 4.08256 40.5059 4.13343 40.5245 4.18575C40.5245 4.20028 40.5338 4.21481 40.5396 4.22935C40.557 4.28167 40.5733 4.33399 40.5873 4.38921L40.5942 4.41101C40.6093 4.47205 40.6221 4.53454 40.6337 4.59704L40.6407 4.63773C40.65 4.70022 40.6581 4.76417 40.664 4.82957V4.8659C40.664 4.93421 40.6721 5.00251 40.6721 5.07227V23.9799C40.6736 24.6246 40.6347 25.2685 40.5559 25.9056C40.5278 26.1138 40.5364 26.3271 40.581 26.5308C40.6256 26.7344 40.7052 26.9234 40.8141 27.0847C40.9231 27.246 41.0588 27.3757 41.2119 27.4647C41.365 27.5537 41.5318 27.5999 41.7006 27.6002C41.9776 27.6002 42.2455 27.4765 42.4561 27.2513C42.6666 27.0261 42.8059 26.7144 42.8488 26.3721C42.9487 25.5857 42.9992 24.7907 42.9999 23.9945V5.07227C43.0012 3.75967 42.595 2.49771 41.8668 1.55233" fill="#F7146B"/>
<path d="M39.4681 31.0865H39.4344C39.2607 31.0877 39.0895 31.1382 38.9337 31.2341C38.7779 31.33 38.6415 31.4689 38.5348 31.6402C38.4767 31.7303 38.4186 31.819 38.3594 31.9076C38.2408 32.083 38.1184 32.255 37.9921 32.4236C37.7146 32.7913 37.4196 33.1378 37.1089 33.4612L37.0903 33.4816C37.0368 33.5368 36.9822 33.5906 36.9276 33.6444L36.8915 33.6807L36.737 33.826L36.6893 33.8711L36.5394 34.0077L36.4825 34.0586L36.3349 34.1864L36.2733 34.2388L36.1257 34.3594L36.0583 34.4117L35.9118 34.5265L35.8421 34.5788L35.6934 34.6878L35.6213 34.7387L35.4714 34.8419L35.3993 34.8898L35.2448 34.9901L35.175 35.0323C35.1216 35.0657 35.0693 35.0991 35.0158 35.1296L34.9577 35.1631C34.7648 35.2755 34.5711 35.3801 34.3766 35.477L34.3232 35.5031L34.1791 35.57L34.0779 35.6151C34.0338 35.6354 33.9885 35.6528 33.9443 35.6717L33.8281 35.7197L33.6979 35.7706L33.5817 35.8156L33.4539 35.8607L33.3272 35.9043L33.2005 35.945L33.0715 35.9842L32.9448 36.0205L32.8112 36.0554L32.6868 36.0874L32.5497 36.1194L32.4254 36.1455L32.2847 36.1731L32.1615 36.1949L32.0151 36.2182L31.8989 36.2371L31.7467 36.256L31.6304 36.269L31.4701 36.2836L31.3608 36.2923L31.1807 36.3025H31.0877C30.9971 36.3025 30.9052 36.3025 30.8134 36.3025C29.2792 36.3013 27.7662 35.8532 26.3945 34.9938C25.0228 34.1343 23.83 32.8871 22.9107 31.351L22.9049 31.3641L22.8979 31.351C22.738 31.0834 22.5304 30.866 22.2915 30.7163C22.0526 30.5667 21.7891 30.4887 21.5219 30.4887C21.2548 30.4887 20.9913 30.5667 20.7524 30.7163C20.5135 30.866 20.3059 31.0834 20.1459 31.351V31.3597C18.9361 33.3984 17.2534 34.9214 15.3268 35.7216C13.4002 36.5217 11.3232 36.5601 9.37851 35.8316C9.08493 35.7217 8.76847 35.7622 8.49876 35.9442C8.22905 36.1261 8.02818 36.4346 7.94034 36.8017C7.85249 37.1688 7.88487 37.5646 8.03035 37.9018C8.17583 38.2391 8.4225 38.4903 8.71608 38.6002C9.85392 39.0371 11.0379 39.2576 12.2281 39.2542C14.0194 39.254 15.7883 38.7577 17.4079 37.8008C18.9786 36.8706 20.3731 35.533 21.4987 33.8769C23.4954 36.8136 26.3069 38.6964 29.3682 39.1472C32.4295 39.598 35.5138 38.5832 38.0014 36.3068C38.0637 36.2497 38.1213 36.1849 38.1734 36.1135C38.3012 35.9915 38.4268 35.8679 38.5499 35.74L38.572 35.7168C38.6882 35.602 38.7928 35.4828 38.9009 35.3622L38.9614 35.2953C39.052 35.1917 39.1415 35.087 39.2298 34.9814C39.2647 34.9378 39.3007 34.8971 39.3367 34.8535C39.4111 34.762 39.4832 34.6675 39.5564 34.573C39.5959 34.5222 39.6366 34.4727 39.6726 34.4204L39.6819 34.4059C39.9143 34.0949 40.1398 33.7708 40.3513 33.4351C40.4873 33.2232 40.5727 32.9676 40.5976 32.6977C40.6224 32.4277 40.5858 32.1545 40.4919 31.9095C40.398 31.6645 40.2507 31.4576 40.0668 31.3128C39.883 31.168 39.6702 31.091 39.4529 31.0909" fill="#F7146B"/>
</g>
</svg>
