<svg width="11" height="11" viewBox="0 0 11 11" fill="none" xmlns="http://www.w3.org/2000/svg">
<path d="M9.22626 1.8975C9.08017 1.90265 8.94611 1.98 8.86876 2.10375L4.73001 8.43562L2.04876 6.11875C1.93361 5.99929 1.76087 5.9546 1.60189 6.00445C1.44376 6.05343 1.32603 6.1875 1.29853 6.35078C1.27103 6.51492 1.3372 6.67992 1.47126 6.77875L4.53751 9.43249C4.63376 9.51414 4.76095 9.55023 4.88556 9.53218C5.01103 9.51328 5.12189 9.44195 5.19064 9.33624L9.61126 2.585C9.70579 2.44664 9.71353 2.26789 9.63189 2.12179C9.55025 1.97656 9.39298 1.88976 9.22626 1.8975Z" fill="#00D222"/>
</svg>
