<svg width="24" height="21" viewBox="0 0 24 21" fill="none" xmlns="http://www.w3.org/2000/svg">
<path d="M1 1L3.37426 1.79021C4.25653 2.08384 4.90721 2.83589 5.06998 3.75011L6.46354 11.5768C6.67882 12.7858 7.73165 13.6667 8.9616 13.6667H18.6287C19.7588 13.6667 20.7527 12.9205 21.0663 11.8365L22.8988 5.5031C23.3674 3.88316 22.1499 2.26667 20.4611 2.26667H8.61172M9.88034 18.1C9.88034 19.1493 9.02837 20 7.97741 20C6.92644 20 6.07448 19.1493 6.07448 18.1C6.07448 17.0507 6.92644 16.2 7.97741 16.2C9.02837 16.2 9.88034 17.0507 9.88034 18.1ZM20.0293 18.1C20.0293 19.1493 19.1773 20 18.1264 20C17.0754 20 16.2234 19.1493 16.2234 18.1C16.2234 17.0507 17.0754 16.2 18.1264 16.2C19.1773 16.2 20.0293 17.0507 20.0293 18.1Z" stroke="black" stroke-width="1.5" stroke-linecap="round"/>
</svg>
